<?xml version="1.0"?>
<svg width="28" height="28" xmlns="http://www.w3.org/2000/svg" xmlns:svg="http://www.w3.org/2000/svg">
 <!-- Generator: Sketch 53 (72520) - https://sketchapp.com -->
 <title>Cloud-small</title>
 <desc>Created with Sketch.</desc>
 <g>
  <title>Layer 1</title>
  <g fill-rule="evenodd" fill="none" id="Page-1">
   <g stroke="null" fill-rule="nonzero" fill="#ACACAC" id="Cloud-small">
    <path stroke="null" id="Combined-Shape" d="m11.968204,17.283318l0,4.345179l-6.375982,0c-1.107089,0 -1.527605,-0.116533 -1.932679,-0.335747c-1.881949,-0.717657 -3.224537,-2.594576 -3.224537,-4.797007c0,-2.821566 2.203515,-5.108888 4.921678,-5.108888c0.506812,0 0.995723,0.079516 1.455797,0.227185c0.180378,-2.11705 1.893211,-3.777081 3.979554,-3.777081c1.022955,0 1.956119,0.399079 2.662872,1.055433c0.721809,-1.930798 2.528895,-3.299622 4.643962,-3.299622c2.750158,0 4.979589,2.314234 4.979589,5.168997c0,0.515205 -0.072613,1.012808 -0.207804,1.482371c0.020273,-0.000279 0.040586,-0.000418 0.060928,-0.000418c2.491529,0 4.511307,2.096609 4.511307,4.682915c0,1.681696 -0.853975,3.156361 -2.136332,3.982201c-0.146835,0.141754 -0.31213,0.263987 -0.494646,0.365414c-0.415979,0.231148 -0.828585,0.354246 -1.966417,0.354246l-7.702666,0l0,-4.345179l2.840449,0l-4.511305,-5.85757l-4.511308,5.85757l3.007539,0z"/>
   </g>
  </g>
 </g>
</svg>