<?xml version="1.0" encoding="UTF-8"?>
<svg width="50px" height="29px" viewBox="0 0 50 29" version="1.1" xmlns="http://www.w3.org/2000/svg" xmlns:xlink="http://www.w3.org/1999/xlink">
    <!-- Generator: Sketch 53 (72520) - https://sketchapp.com -->
    <title>Cloud-small</title>
    <desc>Created with Sketch.</desc>
    <g id="Page-1" stroke="none" stroke-width="1" fill="none" fill-rule="evenodd">
        <g id="Cloud-small" transform="translate(10.619048, 5.629298)" fill="#ACACAC" fill-rule="nonzero">
            <path d="M11.9165355,12.0729159 L11.9165355,16.4369442 L5.51290934,16.4369442 C4.40102199,16.4369442 3.97867665,16.3199039 3.57184539,16.0997404 C1.68173525,15.3789706 0.333333333,13.4939065 0.333333333,11.2819268 C0.333333333,8.44813094 2.54639859,6.1508855 5.27635293,6.1508855 C5.78535604,6.1508855 6.27639,6.230747 6.73846055,6.37905758 C6.91962051,4.25283017 8.63987646,2.58559824 10.735266,2.58559824 C11.7626576,2.58559824 12.6998655,2.9864082 13.40969,3.64560985 C14.1346263,1.70644131 15.9495466,0.331681003 18.0737933,0.331681003 C20.8358647,0.331681003 23.074966,2.65595286 23.074966,5.52308751 C23.074966,6.04052749 23.0020375,6.54028618 22.866268,7.0118923 C22.8866345,7.01161244 22.9070335,7.01147208 22.9274641,7.01147208 C25.429794,7.01147208 27.4583333,9.11717254 27.4583333,11.7146857 C27.4583333,13.4036839 26.6006514,14.8847398 25.3127269,15.7141555 C25.1652583,15.856534 24.9992517,15.9792946 24.8159354,16.0811607 C24.3981581,16.3133134 23.9837643,16.4369442 22.8410006,16.4369442 L15.104925,16.4369442 L15.104925,12.0729159 L17.9576945,12.0729159 L13.4268253,6.18994536 L8.89595605,12.0729159 L11.9165355,12.0729159 Z" id="Combined-Shape"></path>
        </g>
    </g>
</svg>